PathFileType	4	(X/Y/Z)	D:\TRACE\v60_Jaco2_6-2-23\JustBodyDRS_Motion3_4-v60.trc
DataRate	CameraRate	NumFrames	NumMarkers	Units	OrigDataRate	OrigDataStartFrame	OrigNumFrames
100.00	100.00	      38	9	mm	100.00	6126	      7000
Frame#	Time	front left toe			Front right toe			aft left toe			aft right toe			Arm			FL body			FR body			AL Body			AR Body			
		X1	Y1	Z1	X2	Y2	Z2	X3	Y3	Z3	X4	Y4	Z4	X5	Y5	Z5	X6	Y6	Z6	X7	Y7	Z7	X8	Y8	Z8	X9	Y9	Z9	

6126	61.250	-207.36180	21.28162	-119.52612	165.50687	88.16719	-125.26859	-189.82816	60.96837	502.85141	183.83195	-1.98527	490.55475	-2.51176	1219.38037	-100.48048	-93.86660	596.13434	-253.90630	64.43041	595.06671	-255.59145	-76.25217	525.49463	687.85876	78.88819	514.79968	684.10223	
6127	61.260	-207.56740	20.99938	-119.57911	167.93005	101.01441	-125.78486	-191.76921	73.64234	503.06738	183.81584	-1.96767	490.53128	-3.48699	1218.70898	-100.34068	-94.41261	595.96973	-253.48668	63.77441	594.64471	-254.85272	-75.37723	524.93176	688.44794	79.37550	514.17291	684.34607	
6128	61.270	-207.69125	20.81126	-119.37800	169.89998	113.55589	-125.73854	-192.69177	85.90246	502.53583	183.77806	-1.92947	490.67023	-4.30054	1218.16760	-99.56004	-94.82085	595.51556	-252.73535	63.43742	594.04193	-254.93968	-74.99592	524.54645	688.91193	79.59825	513.84692	684.73627	
6129	61.280	-207.77943	20.64923	-119.13749	170.28273	125.67910	-125.57684	-192.61224	96.81034	503.35370	183.81059	-1.97315	490.67068	-4.99445	1217.97400	-98.79832	-95.08443	594.92688	-252.22739	63.64141	593.58362	-254.65712	-74.74806	524.43726	689.24426	81.42091	513.46710	685.27203	
6130	61.290	-207.82304	20.56503	-119.16258	169.65254	136.53645	-125.46509	-191.86925	107.50731	503.84534	183.88786	-2.07092	490.59067	-5.31543	1217.68616	-98.19368	-95.50699	594.29523	-251.77637	63.01401	593.20221	-254.27499	-74.29955	524.29303	690.14679	81.80980	513.22571	685.70416	
6131	61.300	-207.88774	20.40981	-118.95879	170.17859	143.48157	-124.36214	-192.18633	117.63902	504.04019	183.85460	-1.99342	490.62857	-5.52174	1217.19934	-97.93020	-96.00523	593.65161	-250.93535	62.46160	592.26581	-253.00705	-74.13488	524.18365	690.76703	80.50352	513.21576	685.97754	
6132	61.310	-208.06357	20.46521	-118.93352	169.41580	147.56528	-123.07103	-192.05844	123.74468	505.20224	183.84363	-1.96462	490.73874	-5.58821	1216.46558	-97.89487	-96.70509	593.27655	-250.44467	61.96058	591.96930	-253.21260	-74.13560	524.23846	691.30750	81.03194	513.18683	686.64825	
6133	61.320	-208.17755	20.46641	-118.86374	169.46805	150.68730	-121.82779	-192.65414	127.77138	506.17514	183.83281	-1.97918	490.72253	-5.75371	1215.93896	-97.88046	-97.11194	592.60535	-249.34566	61.21431	591.61847	-252.26245	-73.49098	524.28510	692.33740	81.67269	513.26782	687.32538	
6134	61.330	-208.21080	20.43508	-118.85569	169.82961	151.51328	-121.12799	-193.70915	128.48134	507.90280	183.82060	-1.92005	490.69250	-6.44578	1215.69641	-97.75385	-97.75567	592.13196	-248.51590	60.49458	591.04401	-251.54675	-73.27413	524.60181	693.45648	82.03145	513.32043	687.92163	
6135	61.340	-208.25137	20.33962	-118.82669	169.28851	149.19249	-119.41043	-194.85918	125.88509	510.01709	183.81367	-1.82497	490.63168	-7.00009	1215.35095	-97.31255	-98.31682	591.64648	-247.75070	60.38047	590.45160	-251.07518	-72.84895	524.63849	694.27740	82.37463	513.56268	688.89636	
6136	61.350	-208.37077	20.20894	-118.94764	168.96632	144.30351	-117.58852	-195.88510	121.51077	512.43445	183.82347	-1.76659	490.62991	-8.55355	1215.22412	-96.97834	-99.06756	591.33228	-246.90356	59.33638	590.08838	-250.17763	-72.39475	524.92456	694.84784	82.32429	513.83337	689.38104	
6137	61.360	-208.41370	20.14680	-118.86069	167.91013	138.34261	-116.06367	-196.45773	115.86973	515.11456	183.90848	-1.64303	490.63043	-8.80696	1214.96960	-96.28778	-99.61712	591.09589	-246.13707	59.16339	589.84448	-249.65413	-71.79861	525.25549	695.46234	82.62272	514.00122	690.11584	
6138	61.370	-208.38383	20.06751	-118.61562	166.56662	131.82857	-114.71455	-196.62074	108.51690	518.04816	183.92361	-1.57638	490.64465	-9.21334	1214.78772	-95.67477	-100.43018	590.98145	-245.35429	58.55909	589.64429	-249.02330	-72.13198	525.37830	696.64636	84.47988	513.94214	690.90131	
6139	61.380	-208.34322	20.00032	-118.44040	164.58434	123.87441	-113.51593	-197.85097	101.46180	520.15594	183.99757	-1.45144	490.57623	-9.16938	1214.75842	-95.12389	-100.89645	591.02563	-244.34412	57.29816	589.65564	-247.80658	-72.19331	525.35449	697.66876	84.56979	513.93970	691.38562	
6140	61.390	-208.26628	19.94421	-118.34557	163.40572	114.75843	-112.62229	-198.99083	92.60824	522.33209	184.03702	-1.38548	490.57089	-8.77860	1214.81970	-94.15573	-101.59318	591.08630	-243.39316	57.05173	589.67969	-247.64932	-71.98038	525.14166	698.16547	84.59093	513.93066	692.32397	
6141	61.400	-208.34634	19.93193	-118.45325	161.13116	104.39559	-112.45333	-200.12317	83.76369	523.19965	184.04056	-1.34945	490.50742	-8.81105	1214.85242	-93.51361	-102.51739	591.24988	-242.97441	55.61345	589.70050	-246.74814	-72.40257	525.08008	698.99121	82.80262	513.71814	693.04065	
6142	61.410	-208.34726	19.89118	-118.38049	160.37328	94.11591	-111.34378	-201.90038	76.47401	523.46674	184.04521	-1.31133	490.48776	-8.82969	1214.83301	-92.10950	-103.43540	591.17542	-242.20058	54.86155	589.68164	-246.15015	-72.23074	524.91443	699.67047	82.72482	513.49658	693.43237	
6143	61.420	-208.39389	19.71829	-118.41790	158.68639	83.15331	-110.91369	-203.55608	68.19429	523.36511	184.03017	-1.28950	490.43292	-9.24916	1214.78149	-91.28145	-104.18406	591.08447	-241.30124	54.15895	589.68585	-245.43663	-72.36384	524.80872	700.31635	82.60445	513.21027	694.06274	
6144	61.430	-208.44589	19.59906	-118.34734	156.80841	73.03848	-110.07578	-205.74071	58.91326	523.21198	184.06656	-1.23273	490.45905	-9.97677	1214.82007	-90.46836	-105.21918	591.09015	-240.67805	53.16722	589.59222	-244.83537	-72.70348	524.63068	701.02386	82.07638	512.85303	694.55743	
6145	61.440	-208.40366	19.54480	-118.25473	154.70032	62.71643	-109.52019	-208.09634	49.63271	523.80774	184.09666	-1.14714	490.43231	-10.69282	1214.64856	-89.89684	-105.84263	591.10669	-239.99292	52.61766	589.32471	-244.16409	-72.78101	524.51715	701.58246	83.70977	512.58466	695.04675	
6146	61.450	-208.45256	19.43853	-118.36356	153.03752	52.85373	-108.94059	-209.29861	39.55712	524.88745	184.17604	-1.02874	490.46457	-11.25601	1214.46033	-89.64896	-106.85944	591.30206	-239.43857	51.47506	589.30292	-243.66649	-73.37331	524.55463	702.21252	83.47234	512.50836	695.61761	
6147	61.460	-208.57889	19.30898	-118.41222	151.13087	43.07626	-108.05931	-210.85425	30.73298	526.31372	184.32976	-0.81721	490.49030	-12.03199	1214.39490	-89.02669	-107.62110	591.12274	-238.82478	50.60242	589.12103	-243.53018	-74.42653	524.48505	703.06696	74.84870	513.62305	697.38031	
6148	61.470	-208.60777	19.02640	-118.45103	149.84665	34.97905	-106.93195	-211.68750	22.84511	526.52771	184.46463	-0.58774	490.50937	-13.55906	1214.21204	-88.77316	-108.56844	590.72119	-238.34186	49.78310	588.87952	-242.71053	-75.02192	524.51196	703.55756	74.45801	513.65796	697.87744	
6149	61.480	-208.69096	18.58206	-118.48151	148.91783	27.82114	-106.35612	-213.29666	16.12583	527.00702	184.47949	-0.22243	490.44156	-13.92233	1213.90063	-88.55315	-109.63393	590.63202	-237.94286	48.68037	588.37927	-241.96817	-76.13494	524.74945	703.86957	73.24051	513.71820	698.17847	
6150	61.490	-208.80516	18.46991	-118.40917	147.99883	23.63193	-106.94268	-214.87695	9.98600	527.17438	184.41763	0.17131	490.50113	-14.85044	1213.74988	-88.46449	-110.64790	590.46179	-237.44597	47.79427	588.14386	-241.91757	-77.09476	524.96100	704.50562	72.25700	513.70715	698.78052	
6151	61.500	-208.80595	18.28075	-118.57155	148.40666	21.26286	-106.98571	-216.43234	5.75150	526.42200	184.28143	0.52191	490.42285	-15.85345	1213.58447	-88.50352	-111.59466	590.16565	-237.01910	46.72564	588.26727	-241.50555	-78.23228	525.00293	704.51727	71.34934	513.96234	699.19879	
6152	61.510	-208.63666	18.21226	-118.62222	148.71861	20.66425	-108.33978	-217.31860	3.88689	526.41754	184.17184	0.80488	490.45605	-16.64567	1213.52710	-88.28516	-112.65211	590.35803	-236.78584	45.87624	588.84064	-241.35226	-79.45849	525.58966	705.14581	69.91916	514.45935	699.55304	
6153	61.520	-208.32713	18.30508	-118.52689	149.29494	21.57287	-108.27864	-217.54247	4.74752	525.81775	183.95438	1.21499	490.32431	-18.32438	1214.24976	-87.88167	-113.65524	591.10583	-236.09071	44.64885	589.16040	-240.45642	-80.57306	527.07184	705.70801	68.74944	516.10999	700.05591	
6154	61.530	-208.18896	18.55637	-118.94231	147.99210	22.15818	-107.46012	-216.87981	4.04037	526.02386	183.76677	2.23082	490.31213	-20.04198	1215.64978	-87.61709	-114.83057	591.37628	-235.68062	43.50617	589.34454	-240.03917	-81.95435	529.46692	706.55890	67.47929	517.95740	700.61823	
6155	61.540	-208.78708	21.45997	-117.79183	147.31102	21.51519	-105.81266	-217.32935	3.45009	526.70691	182.92221	5.38505	490.67462	-21.63476	1216.85242	-87.80894	-116.29088	591.94965	-235.43961	42.15276	590.34656	-240.16100	-82.69445	530.52594	706.66437	66.70142	518.89026	700.90863	
6156	61.550	-206.92867	26.08032	-115.07773	147.09398	21.70141	-106.55724	-217.53633	3.69727	526.60089	179.49239	8.86599	494.56110	-23.61021	1217.52039	-88.71854	-117.12064	592.67859	-235.22780	41.17649	590.83868	-239.69359	-83.94891	531.00916	706.63678	65.67294	519.54034	700.86969	
6157	61.560	-204.29428	31.18997	-110.50496	147.72064	21.39119	-107.04008	-217.55215	3.98560	526.04852	176.23123	15.18614	497.15338	-24.98606	1217.61560	-89.88357	-118.10891	592.99988	-235.38797	40.11773	591.11279	-239.74223	-84.71928	531.37164	706.40894	64.63691	520.09918	700.92664	
6158	61.570	-203.43768	41.97437	-109.56192	147.76509	20.95835	-107.14207	-217.03523	3.83279	526.02722	173.41432	24.76891	498.31699	-25.73610	1217.31299	-90.32308	-118.64960	592.73779	-235.61681	39.64684	591.00543	-239.95285	-86.07534	531.90082	706.23999	63.84520	520.98053	701.00629	
6159	61.580	-203.25354	51.93317	-109.41455	147.46750	20.72538	-107.07263	-216.95576	3.87492	525.94470	171.75708	36.82252	497.55008	-26.42513	1216.91394	-90.67355	-119.20867	592.12256	-236.07898	39.22522	590.85944	-240.27319	-87.12892	532.19562	705.94159	62.53577	521.52301	700.90588	
6160	61.590	-204.91554	63.43810	-110.22095	147.10730	20.06548	-107.37558	-217.04559	3.92628	525.87842	171.44235	49.33207	496.64847	-27.25818	1216.67175	-91.17323	-119.32926	591.30518	-236.52200	39.39964	590.15070	-240.84937	-88.27148	532.58612	705.64185	61.46365	521.83142	700.55023	
6161	61.600	-207.25761	75.35250	-112.07523	147.67236	19.92320	-107.25095	-217.47746	4.21638	525.77191	171.84428	62.76295	495.86053	-28.01085	1216.16870	-91.94848	-119.47971	590.55286	-237.20734	39.31953	589.41504	-241.22992	-89.57113	532.73120	705.45197	59.71871	522.10999	700.17572	
6162	61.610	-209.75728	87.43530	-113.56554	148.01900	19.36150	-107.17637	-217.33803	4.21071	525.64020	171.70389	75.30186	495.68631	-28.74251	1215.43945	-93.09074	-119.67488	589.74286	-237.96603	38.90205	588.81366	-241.48492	-90.50302	532.64191	704.61798	58.59061	522.18176	699.98572	
6163	61.620	-211.44365	99.40205	-114.78886	148.29970	19.23593	-107.15215	-216.72853	4.00436	525.45245	171.13358	87.23730	495.83530	-29.90634	1214.59705	-94.46967	-119.61694	589.03516	-238.36880	38.77835	588.41473	-241.86452	-91.80331	532.43402	704.02747	57.71199	522.29010	699.55792	
